<mxfile host="app.diagrams.net" modified="2021-05-23T22:08:02.643Z" agent="5.0 (Windows NT 10.0; Win64; x64) AppleWebKit/537.36 (KHTML, like Gecko) Chrome/90.0.4430.212 Safari/537.36" etag="_pAhSODKkTIVUI5ppMor" version="14.7.0" type="github">
  <diagram id="v6IjnNo-cywiaHl_aoNC" name="Page-1">
    <mxGraphModel dx="1038" dy="580" grid="1" gridSize="10" guides="1" tooltips="1" connect="1" arrows="1" fold="1" page="1" pageScale="1" pageWidth="827" pageHeight="1169" math="0" shadow="0">
      <root>
        <mxCell id="0" />
        <mxCell id="1" parent="0" />
        <mxCell id="maKWgocogdaiJwBFISY3-3" value="" style="edgeStyle=orthogonalEdgeStyle;rounded=0;orthogonalLoop=1;jettySize=auto;html=1;" edge="1" parent="1" source="maKWgocogdaiJwBFISY3-1" target="maKWgocogdaiJwBFISY3-2">
          <mxGeometry relative="1" as="geometry" />
        </mxCell>
        <mxCell id="maKWgocogdaiJwBFISY3-7" value="" style="edgeStyle=orthogonalEdgeStyle;rounded=0;orthogonalLoop=1;jettySize=auto;html=1;" edge="1" parent="1" source="maKWgocogdaiJwBFISY3-1" target="maKWgocogdaiJwBFISY3-6">
          <mxGeometry relative="1" as="geometry" />
        </mxCell>
        <mxCell id="maKWgocogdaiJwBFISY3-19" value="" style="edgeStyle=orthogonalEdgeStyle;rounded=0;orthogonalLoop=1;jettySize=auto;html=1;" edge="1" parent="1" source="maKWgocogdaiJwBFISY3-1" target="maKWgocogdaiJwBFISY3-18">
          <mxGeometry relative="1" as="geometry" />
        </mxCell>
        <mxCell id="maKWgocogdaiJwBFISY3-21" value="" style="edgeStyle=orthogonalEdgeStyle;rounded=0;orthogonalLoop=1;jettySize=auto;html=1;" edge="1" parent="1" source="maKWgocogdaiJwBFISY3-1" target="maKWgocogdaiJwBFISY3-20">
          <mxGeometry relative="1" as="geometry" />
        </mxCell>
        <mxCell id="maKWgocogdaiJwBFISY3-1" value="server" style="rounded=0;whiteSpace=wrap;html=1;" vertex="1" parent="1">
          <mxGeometry x="350" y="270" width="120" height="60" as="geometry" />
        </mxCell>
        <mxCell id="maKWgocogdaiJwBFISY3-2" value="404.js&lt;br&gt;error.js" style="rounded=0;whiteSpace=wrap;html=1;" vertex="1" parent="1">
          <mxGeometry x="550" y="270" width="120" height="60" as="geometry" />
        </mxCell>
        <mxCell id="maKWgocogdaiJwBFISY3-6" value="index.js" style="rounded=0;whiteSpace=wrap;html=1;" vertex="1" parent="1">
          <mxGeometry x="350" y="130" width="120" height="60" as="geometry" />
        </mxCell>
        <mxCell id="maKWgocogdaiJwBFISY3-23" value="" style="edgeStyle=orthogonalEdgeStyle;rounded=0;orthogonalLoop=1;jettySize=auto;html=1;" edge="1" parent="1" source="maKWgocogdaiJwBFISY3-18" target="maKWgocogdaiJwBFISY3-22">
          <mxGeometry relative="1" as="geometry" />
        </mxCell>
        <mxCell id="maKWgocogdaiJwBFISY3-25" value="" style="edgeStyle=orthogonalEdgeStyle;rounded=0;orthogonalLoop=1;jettySize=auto;html=1;" edge="1" parent="1" source="maKWgocogdaiJwBFISY3-18" target="maKWgocogdaiJwBFISY3-24">
          <mxGeometry relative="1" as="geometry" />
        </mxCell>
        <mxCell id="maKWgocogdaiJwBFISY3-18" value="router" style="rounded=0;whiteSpace=wrap;html=1;" vertex="1" parent="1">
          <mxGeometry x="350" y="411" width="120" height="60" as="geometry" />
        </mxCell>
        <mxCell id="maKWgocogdaiJwBFISY3-20" value="500.js&amp;nbsp;&lt;br&gt;error" style="rounded=0;whiteSpace=wrap;html=1;" vertex="1" parent="1">
          <mxGeometry x="150" y="270" width="120" height="60" as="geometry" />
        </mxCell>
        <mxCell id="maKWgocogdaiJwBFISY3-30" value="" style="edgeStyle=orthogonalEdgeStyle;rounded=0;orthogonalLoop=1;jettySize=auto;html=1;entryX=1;entryY=0.5;entryDx=0;entryDy=0;entryPerimeter=0;" edge="1" parent="1" source="maKWgocogdaiJwBFISY3-22" target="maKWgocogdaiJwBFISY3-27">
          <mxGeometry relative="1" as="geometry">
            <mxPoint x="270" y="581" as="targetPoint" />
          </mxGeometry>
        </mxCell>
        <mxCell id="maKWgocogdaiJwBFISY3-22" value="sign In&amp;nbsp;" style="rounded=0;whiteSpace=wrap;html=1;" vertex="1" parent="1">
          <mxGeometry x="350" y="551" width="120" height="60" as="geometry" />
        </mxCell>
        <mxCell id="maKWgocogdaiJwBFISY3-28" value="" style="edgeStyle=orthogonalEdgeStyle;rounded=0;orthogonalLoop=1;jettySize=auto;html=1;" edge="1" parent="1" source="maKWgocogdaiJwBFISY3-24" target="maKWgocogdaiJwBFISY3-27">
          <mxGeometry relative="1" as="geometry" />
        </mxCell>
        <mxCell id="maKWgocogdaiJwBFISY3-24" value="sign Up" style="rounded=0;whiteSpace=wrap;html=1;" vertex="1" parent="1">
          <mxGeometry x="150" y="411" width="120" height="60" as="geometry" />
        </mxCell>
        <mxCell id="maKWgocogdaiJwBFISY3-27" value="database" style="shape=cylinder3;whiteSpace=wrap;html=1;boundedLbl=1;backgroundOutline=1;size=15;" vertex="1" parent="1">
          <mxGeometry x="140" y="570" width="60" height="80" as="geometry" />
        </mxCell>
      </root>
    </mxGraphModel>
  </diagram>
</mxfile>
